<?xml version="1.0" encoding="utf-8"?>
<!-- Generator: Adobe Illustrator 15.0.0, SVG Export Plug-In . SVG Version: 6.00 Build 0)  -->
<!DOCTYPE svg PUBLIC "-//W3C//DTD SVG 1.1//EN" "http://www.w3.org/Graphics/SVG/1.1/DTD/svg11.dtd">
<svg version="1.1" id="Layer_1" xmlns="http://www.w3.org/2000/svg" xmlns:xlink="http://www.w3.org/1999/xlink" x="0px" y="0px"
	 width="3456px" height="3456px" viewBox="0 0 3456 3456" enable-background="new 0 0 3456 3456" xml:space="preserve">
<line fill="none" stroke="#000000" x1="2337.443" y1="1793.608" x2="1117.694" y2="1793.608"/>
<line fill="none" stroke="#000000" x1="1093.88" y1="1897.882" x2="2361.259" y2="1897.882"/>
<line fill="none" stroke="#000000" x1="2385.073" y1="2002.155" x2="1070.065" y2="2002.155"/>
<line fill="none" stroke="#000000" x1="1046.25" y1="2106.429" x2="2408.888" y2="2106.429"/>
<line fill="none" stroke="#000000" x1="2264.794" y1="1376.514" x2="1190.344" y2="1376.514"/>
<line fill="none" stroke="#000000" x1="1189.139" y1="1480.788" x2="2266" y2="1480.788"/>
<line fill="none" stroke="#000000" x1="2289.814" y1="1585.062" x2="1165.324" y2="1585.062"/>
<line fill="none" stroke="#000000" x1="1141.509" y1="1689.335" x2="2313.629" y2="1689.335"/>
<line fill="none" stroke="#000000" x1="2275.83" y1="1167.967" x2="1179.309" y2="1167.967"/>
<line fill="none" stroke="#000000" x1="1184.826" y1="1272.241" x2="2270.312" y2="1272.241"/>
<line fill="none" stroke="#000000" x1="2486.374" y1="2732.07" x2="968.765" y2="2732.07"/>
<line fill="none" stroke="#000000" x1="957.755" y1="2836.344" x2="2497.384" y2="2836.344"/>
<line fill="none" stroke="#000000" x1="2508.395" y1="2940.617" x2="946.745" y2="2940.617"/>
<line fill="none" stroke="#000000" x1="935.735" y1="3044.891" x2="2519.404" y2="3044.891"/>
<line fill="none" stroke="#000000" x1="2453.344" y1="2419.25" x2="1001.794" y2="2419.25"/>
<line fill="none" stroke="#000000" x1="990.785" y1="2523.523" x2="2464.354" y2="2523.523"/>
<line fill="none" stroke="#000000" x1="2431.324" y1="2210.702" x2="1023.814" y2="2210.702"/>
<line fill="none" stroke="#000000" x1="1012.804" y1="2314.976" x2="2442.334" y2="2314.976"/>
<line fill="none" stroke="#000000" x1="2475.364" y1="2627.797" x2="979.774" y2="2627.797"/>
<line fill="none" stroke="#000000" x1="1508.019" y1="542.326" x2="1360.558" y2="542.326"/>
<line fill="none" stroke="#000000" x1="1494.122" y1="438.053" x2="1358.895" y2="438.053"/>
<line fill="none" stroke="#000000" x1="1947.12" y1="542.326" x2="2094.58" y2="542.326"/>
<line fill="none" stroke="#000000" x1="2096.244" y1="438.053" x2="1961.018" y2="438.053"/>
<line fill="none" stroke="#000000" x1="2096.033" y1="646.6" x2="1912.243" y2="646.6"/>
<line fill="none" stroke="#000000" x1="1276.886" y1="750.873" x2="2182.858" y2="750.873"/>
<line fill="none" stroke="#000000" x1="1476.824" y1="308.262" x2="1356.824" y2="308.262"/>
<line fill="none" stroke="#000000" x1="1357.231" y1="333.779" x2="1480.225" y2="333.779"/>
<line fill="none" stroke="#000000" x1="1187.758" y1="855.146" x2="2267.38" y2="855.146"/>
<line fill="none" stroke="#000000" x1="2286.865" y1="959.42" x2="1168.273" y2="959.42"/>
<line fill="none" stroke="#000000" x1="1173.791" y1="1063.693" x2="2281.348" y2="1063.693"/>
<line fill="none" stroke="#000000" x1="1974.915" y1="333.779" x2="2097.907" y2="333.779"/>
<line fill="none" stroke="#000000" x1="2098.314" y1="308.262" x2="1978.315" y2="308.262"/>
<line fill="none" stroke="#000000" x1="1518.403" y1="646.6" x2="1334.613" y2="646.6"/>
</svg>
