<?xml version="1.0" encoding="utf-8"?>
<!-- Generator: Adobe Illustrator 15.0.0, SVG Export Plug-In . SVG Version: 6.00 Build 0)  -->
<!DOCTYPE svg PUBLIC "-//W3C//DTD SVG 1.1//EN" "http://www.w3.org/Graphics/SVG/1.1/DTD/svg11.dtd">
<svg version="1.1" id="Layer_1" xmlns="http://www.w3.org/2000/svg" xmlns:xlink="http://www.w3.org/1999/xlink" x="0px" y="0px"
	 width="1936px" height="3568px" viewBox="0 0 1936 3568" enable-background="new 0 0 1936 3568" xml:space="preserve">
<polygon fill-rule="evenodd" clip-rule="evenodd" fill="none" stroke="#000000" stroke-width="9.8007" stroke-linecap="round" points="
	1045.827,2903.785 974.371,2903.522 902.835,2904.092 831.372,2903.881 760.136,2901.277 737.344,2364.115 719.468,1791.759 
	684.245,1291.025 609.411,968.732 568.885,821.322 572.27,664.703 596.834,520.646 619.848,410.923 652.512,408.383 
	684.546,412.331 716.617,417.103 749.394,417.037 808.185,419.381 866.906,422.621 925.541,426.157 984.07,429.388 998.902,425.558 
	1014.468,424.957 1030.272,425.542 1045.827,425.271 1103.467,425.271 1161.106,425.271 1218.746,425.271 1276.387,425.271 
	1288.556,542.722 1298.227,661.511 1311.388,779.519 1334.026,894.624 1342.748,949.594 1371.512,997.215 1413.802,1034.653 
	1463.104,1059.074 1463.98,1062.918 1464.6,1066.727 1464.752,1070.468 1464.223,1074.112 1381.401,1520.623 1349.541,1977.715 
	1341.845,2439.797 1331.518,2901.277 1260.543,2903.907 1189.023,2904.1 1117.329,2903.508 1045.827,2903.785 "/>
</svg>
